Coordinates
version=1
nRows=15
nColumns=42
inDegrees=yes

Units are S.I. units (second, meters, Newtons, ...)
If the header above contains a line with 'inDegrees', this indicates whether rotational values are in degrees (yes) or radians (no).

endheader
time	pelvis_tilt	pelvis_list	pelvis_rotation	pelvis_tx	pelvis_ty	pelvis_tz	hip_flexion_r	hip_adduction_r	hip_rotation_r	knee_angle_r	knee_adduction_r	knee_angle_r_beta	ankle_angle_r	subtalar_angle_r	mtp_angle_r	hip_flexion_l	hip_adduction_l	hip_rotation_l	knee_angle_l	knee_adduction_l	knee_angle_l_beta	ankle_angle_l	subtalar_angle_l	mtp_angle_l	lumbar_extension	lumbar_bending	lumbar_rotation	arm_flex_r	arm_add_r	arm_rot_r	elbow_flex_r	pro_sup_r	wrist_flex_r	wrist_dev_r	arm_flex_l	arm_add_l	arm_rot_l	elbow_flex_l	pro_sup_l	wrist_flex_l	wrist_dev_l
      1.94000000	     -7.69234406	     -0.91870700	     -2.56764613	      0.42359428	      0.91441771	     -0.07609851	    -10.50333209	      8.62926513	     -3.64970668	      3.37100721	     -7.71565274	      0.05883517	     24.82099294	      9.62189177	     -7.50667450	     34.69369122	     -1.00855279	     -4.41250111	      8.23684225	     -4.64778960	      0.14376002	      7.10557279	      5.84286444	     -7.50667450	     -3.51940162	     -1.70670327	      1.74852751	     10.27297314	    -13.80511421	     -2.20129072	     38.56527877	     90.00000001	      0.00000000	      0.00000000	    -14.35710667	     -9.29151558	    -27.25601851	     12.94781241	     90.00000001	      0.00000000	      0.00000000
      1.95000000	     -7.65527660	     -0.63536713	     -2.79256607	      0.43527394	      0.91296835	     -0.07645414	    -11.05646902	      8.05602595	     -3.41182313	      4.00361945	     -7.48243804	      0.06987634	     24.98819322	      9.40560202	     -7.50658489	     35.04726974	     -0.70532268	     -4.94180898	      9.53336337	     -4.79569879	      0.16638858	      6.29646511	      5.06952334	     -7.50658489	     -3.60896626	     -2.20506311	      1.89982285	     10.11786415	    -13.73226133	     -2.34394113	     38.67018473	     90.00000001	      0.00000000	      0.00000000	    -14.09576383	     -9.48504121	    -27.08769093	     12.61209994	     90.00000001	      0.00000000	      0.00000000
      1.96000000	     -7.63794846	     -0.36028439	     -3.00561457	      0.44735069	      0.91175159	     -0.07654110	    -11.58939133	      7.51002256	     -3.18801333	      4.66177822	     -7.24810219	      0.08136338	     24.89377080	      9.17599903	     -7.50649572	     35.26834014	     -0.44788249	     -4.88509196	     10.87863466	     -4.85400343	      0.18986799	      5.60755071	      4.18916833	     -7.50649572	     -3.62058942	     -2.75058564	      2.04016923	      9.85563391	    -13.57311832	     -2.52047803	     38.63667526	     90.00000001	      0.00000000	      0.00000000	    -13.88411893	     -9.70998451	    -26.99482402	     12.43994494	     90.00000001	      0.00000000	      0.00000000
      1.97000000	     -7.86519234	     -0.12419142	     -3.07463605	      0.45917618	      0.91065901	     -0.07680132	    -11.81374200	      7.09193607	     -2.60225196	      5.40552480	     -7.09155737	      0.09434421	     24.45421892	      8.00249779	     -7.50607044	     35.57586851	     -0.07107154	     -3.15103417	     12.19800872	     -4.78349721	      0.21289541	      3.83968307	      0.55097958	     -7.50607044	     -3.37910954	     -3.24215321	      2.07739735	      9.55815044	    -13.31111592	     -2.97051522	     38.41683654	     90.00000001	      0.00000000	      0.00000000	    -13.49036440	     -9.95997467	    -27.21689735	     12.12643614	     90.00000001	      0.00000000	      0.00000000
      1.98000000	     -7.69324431	      0.26201883	     -3.13624882	      0.47165695	      0.91025861	     -0.07727003	    -12.40356487	      6.33780480	     -2.46767691	      6.27419052	     -6.70445642	      0.10950528	     24.00858478	      7.79460060	     -7.50598683	     35.66029297	      0.35204648	     -2.67176622	     14.04584286	     -4.69113523	      0.24514620	      3.13581240	     -0.14472965	     -7.50598683	     -3.55648538	     -3.91714796	      2.01181204	      9.22640936	    -13.08069755	     -3.10319777	     38.26578087	     90.00000001	      0.00000000	      0.00000000	    -13.18726039	    -10.18304039	    -27.07179205	     12.06467957	     90.00000001	      0.00000000	      0.00000000
      1.99000000	     -7.87807099	      0.61314899	     -3.07880898	      0.48386989	      0.90991093	     -0.07773707	    -12.46058107	      5.73962182	     -2.17676259	      7.38061222	     -6.43671866	      0.12881598	     23.28862266	      6.64271937	     -7.50564207	     36.00372050	      0.82281204	     -0.73985902	     15.84477600	     -4.31850041	      0.27654351	      1.37334712	     -4.04262573	     -7.50564207	     -3.34325655	     -4.55211343	      1.92078031	      8.81374925	    -12.69333312	     -3.66775895	     37.86795895	     90.00000001	      0.00000000	      0.00000000	    -12.75305862	    -10.48438291	    -26.96814370	     11.89460022	     90.00000001	      0.00000000	      0.00000000
      2.00000000	     -7.61744693	      1.02893121	     -3.03461394	      0.49683017	      0.91033026	     -0.07842704	    -13.00760745	      4.90576515	     -2.06111775	      8.50551328	     -5.92945325	      0.14844921	     22.44139320	      6.43223341	     -7.50557117	     35.88006775	      1.23438574	      0.01851119	     17.70048652	     -3.87788565	      0.30893177	      1.00893868	     -4.54178256	     -7.50557117	     -3.59473650	     -5.25515991	      1.75740886	      8.33856143	    -12.42311135	     -3.79079978	     37.57288313	     90.00000001	      0.00000000	      0.00000000	    -12.35747594	    -10.71418801	    -26.80171069	     11.93711735	     90.00000001	      0.00000000	      0.00000000
      2.01000000	     -7.66728823	      1.39188491	     -2.76272248	      0.50952734	      0.91086266	     -0.07935247	    -13.00173068	      4.23681262	     -1.99396934	     10.01897991	     -5.47960681	      0.17486419	     21.08542143	      4.89483017	     -7.50514699	     35.97378035	      1.81661892	      2.10935901	     19.44504721	     -3.22650961	      0.33938010	     -0.54068585	     -8.63756263	     -7.50514699	     -3.51757797	     -5.88194783	      1.48228931	      7.82813504	    -12.00286056	     -4.39910601	     36.97594547	     90.00000001	      0.00000000	      0.00000000	    -11.82399367	    -11.01482866	    -26.50590881	     11.86031896	     90.00000001	      0.00000000	      0.00000000
      2.02000000	     -7.34072209	      1.73326554	     -2.61938885	      0.52289640	      0.91203302	     -0.08029801	    -13.33710349	      3.44145209	     -2.14702297	     11.63469288	     -4.86761930	      0.20306370	     19.59141722	      4.38833961	     -7.50506097	     35.62344405	      2.20196197	      2.77966448	     21.11969910	     -2.66547207	      0.36860829	     -0.44784452	     -9.32000735	     -7.50506097	     -3.80980802	     -6.45753048	      1.27418292	      7.25877195	    -11.69257381	     -4.65846759	     36.44895323	     90.00000001	      0.00000000	      0.00000000	    -11.29595920	    -11.22292852	    -26.26691562	     11.89837516	     90.00000001	      0.00000000	      0.00000000
      2.03000000	     -7.07906812	      1.99902283	     -2.41831523	      0.53621361	      0.91349624	     -0.08124899	    -13.39251006	      2.75267653	     -2.31791368	     13.58845471	     -4.25994487	      0.23716327	     17.79656315	      3.62181345	     -7.50497760	     35.16151542	      2.57154233	      3.56209006	     22.45619513	     -2.12549900	      0.39193454	     -0.29354345	    -10.23423653	     -7.50497760	     -4.01967623	     -6.92620150	      1.03685272	      6.66064129	    -11.33393365	     -4.99750034	     35.79591640	     90.00000001	      0.00000000	      0.00000000	    -10.70143664	    -11.44569202	    -25.98954918	     11.98136766	     90.00000001	      0.00000000	      0.00000000
      2.04000000	     -6.78887996	      2.22517356	     -2.15458884	      0.54941658	      0.91530639	     -0.08244891	    -13.39661285	      2.14930890	     -2.20601004	     15.60675561	     -3.68869641	      0.27238927	     15.89567373	      2.97824458	     -7.50494077	     34.48122973	      2.97347626	      4.41112822	     23.43983780	     -1.60087608	      0.40910235	     -0.05524555	    -10.90108309	     -7.50494077	     -4.29869452	     -7.30653185	      0.71186003	      6.09341938	    -11.02574989	     -5.28352466	     35.11679685	     90.00000001	      0.00000000	      0.00000000	    -10.04144526	    -11.56569873	    -25.80285564	     12.08681635	     90.00000001	      0.00000000	      0.00000000
      2.05000000	     -7.00582269	      2.34529347	     -1.75606842	      0.56209342	      0.91691053	     -0.08346399	    -12.26720964	      1.77405106	     -2.43270136	     18.67952627	     -3.26771535	      0.32601924	     13.50111536	      0.53515405	     -7.50467280	     34.14743475	      3.40333555	      5.71791098	     23.95734787	     -1.17903769	      0.41813460	     -0.39755002	    -13.11340643	     -7.50467280	     -4.00858767	     -7.58844405	      0.41504305	      5.51025098	    -10.50363913	     -6.08782768	     33.97678388	     90.00000001	      0.00000000	      0.00000000	     -9.39277640	    -11.81864859	    -25.05779613	     12.31579646	     90.00000001	      0.00000000	      0.00000000
      2.06000000	     -6.56895536	      2.37358011	     -1.41884391	      0.57507179	      0.91943530	     -0.08479750	    -11.95811170	      1.34726128	     -2.68386606	     21.35612278	     -2.69826897	      0.37273466	     11.05091447	     -0.12635521	     -7.50462921	     33.00621901	      3.72117597	      5.87929080	     24.36606554	     -1.08928278	      0.42526807	      0.44078802	    -13.08597913	     -7.50462921	     -4.48234774	     -7.68244102	      0.04934840	      4.99621895	    -10.23715296	     -6.22029657	     33.05548716	     90.00000001	      0.00000000	      0.00000000	     -8.58155188	    -11.88868319	    -24.81508129	     12.52226831	     90.00000001	      0.00000000	      0.00000000
      2.07000000	     -6.54013050	      2.59486983	     -1.14433811	      0.58776483	      0.92161609	     -0.08581812	    -10.68288357	      0.82026237	     -3.16381529	     24.92829552	     -2.53079703	      0.43508083	      8.64044047	     -1.80398368	     -7.50454643	     32.15226762	      4.20674654	      5.67466979	     24.40850619	     -1.24592776	      0.42600880	      1.29501112	    -12.55938138	     -7.50454643	     -4.43507399	     -8.01978572	     -0.21265279	      4.49415500	     -9.79714920	     -6.60859010	     31.84837300	     90.00000001	      0.00000000	      0.00000000	     -7.81937131	    -12.05324416	    -24.36371656	     12.77448472	     90.00000001	      0.00000000	      0.00000000
      2.08000000	     -6.54901080	      2.63648049	     -0.89166597	      0.60007361	      0.92384793	     -0.08704856	     -9.19337594	      0.40018339	     -3.41318450	     28.65733861	     -2.21323074	      0.50016491	      6.54494040	     -3.27400642	     -7.50443713	     31.33368808	      4.51334433	      5.28659158	     24.42432156	     -1.50232495	      0.42628483	      2.21115228	    -11.78304935	     -7.50443713	     -4.37928124	     -8.07956600	     -0.45766352	      4.05353427	     -9.42831681	     -7.03336267	     30.58575180	     90.00000001	      0.00000000	      0.00000000	     -7.05461737	    -12.09420124	    -23.71549836	     13.15061578	     90.00000001	      0.00000000	      0.00000000
